<!-- Generated by IcoMoon.io -->
<svg version="1.1" xmlns="http://www.w3.org/2000/svg" width="1024" height="1024" viewBox="0 0 1024 1024">
<title></title>
<g id="icomoon-ignore">
</g>
<path fill="#fff" d="M1024 512c0 282.77-229.23 512-512 512s-512-229.23-512-512c0-282.77 229.23-512 512-512s512 229.23 512 512z"></path>
<path fill="#231f20" d="M273.067 742.593c0 0.020 0 0.045 0 0.069 0 4.54-3.658 8.226-8.188 8.271h-63.287c-4.522-0.045-8.17-3.721-8.17-8.249 0-0.032 0-0.064 0.001-0.096v0.005-74.342c0-4.585 3.641-8.34 8.169-8.34h63.295c4.506 0 8.181 3.755 8.181 8.34v74.342zM739.556 742.593c0 4.608 3.675 8.34 8.192 8.34h63.283c4.524-0.058 8.17-3.739 8.17-8.271 0-0.024 0-0.048 0-0.073v0.004-74.342c0-0.017 0-0.037 0-0.058 0-4.535-3.644-8.218-8.163-8.282h-63.278c-4.528 0-8.203 3.755-8.203 8.34v74.342z"></path>
<path fill="#009fdb" d="M762.311 396.117h10.695s6.19-1.57 7.327-8.841c1.115-7.27-0.865-22.073 14.905-22.847 15.735-0.774 33.451 0 33.451 0s13.266-0.899 13.266 15.656c0 16.543-14.962 27.546-37.717 29.514h-41.927v-13.483zM261.689 396.117h-10.684s-6.19-1.57-7.327-8.841c-1.115-7.27 0.853-22.073-14.905-22.847-15.747-0.774-33.485 0-33.485 0s-13.244-0.899-13.244 15.656c0 16.543 14.95 27.546 37.74 29.514h41.904v-13.483z"></path>
<path fill="#009fdb" d="M819.45 452.187c-28.581-44.1-28.638-30.948-56.331-69.894-37.797-53.202-58.823-107.998-104.22-113.106l-149.424-2.469-149.481 2.48c-45.34 5.109-66.367 59.904-104.175 113.106-27.694 38.958-27.762 25.793-56.32 69.894-28.547 44.078-13.471 196.938-13.471 196.938 0 40.505 46.751 38.354 46.751 38.354h553.415s46.729 2.162 46.729-38.343c0 0 15.098-152.872-13.471-196.961z"></path>
<path fill="#fff" d="M665.873 500.622h-319.113c-11.537 1.513-3.675 7.088 14.165 30.447 17.818 23.381 33.064 22.187 44.601 24.724 11.526 2.537 100.784 1.513 100.784 1.513s89.259 1.024 100.773-1.513c11.583-2.549 26.783-1.343 44.624-24.724 17.829-23.359 25.691-28.934 14.165-30.447zM193.422 603.022s32.54 6.155 54.044 24.075c21.447 17.943 34.998 39.583 17.761 43.27-17.169 3.709-47.252-4.938-47.252-4.938s-16.555-2.105-19.638-21.015c-3.834-23.324-4.915-41.392-4.915-41.392z"></path>
<path fill="none" stroke="#fff" stroke-linejoin="miter" stroke-linecap="butt" stroke-miterlimit="4" stroke-width="21.3333" d="M284.444 477.867s17.18-12.083 34.85-11.344c17.692 0.717 192.705 0 192.705 0"></path>
<path fill="#fff" d="M830.578 603.022s-32.54 6.155-54.022 24.075c-21.493 17.943-34.987 39.583-17.818 43.27 17.215 3.709 47.286-4.938 47.286-4.938s16.521-2.105 19.627-21.015c3.812-23.324 4.927-41.392 4.927-41.392zM725.106 386.071c-8.42-12.937-41.677-71.999-64.728-75.253-23.040-3.22-148.378-3.618-148.378-3.618s-125.338 0.398-148.389 3.618c-23.006 3.254-56.286 62.316-64.717 75.253-8.42 12.937 3.106 12.14 3.106 12.14h419.999s11.526 0.796 3.095-12.14zM512 603.022h-182.044s0 24.314 16.953 44.339c13.596 16.054 165.092 12.129 165.092 12.129s151.472 3.925 165.092-12.129c16.953-20.025 16.953-44.339 16.953-44.339h-182.044z"></path>
<path fill="#009fdb" d="M627.849 512.228h-231.731c-33.633-0.501-32.017 0-32.017 0 12.174 7.794 46.615 8.761 46.615 8.761h202.524s34.475-0.967 46.649-8.761c0 0 1.616-0.501-32.040 0zM616.778 534.983h-209.567c-33.337-0.501-31.744 0-31.744 0 12.049 7.817 46.194 8.761 46.194 8.761h180.634s34.19-0.944 46.239-8.761c0 0 1.593-0.501-31.744 0z"></path>
<path fill="none" stroke="#fff" stroke-linejoin="miter" stroke-linecap="butt" stroke-miterlimit="4" stroke-width="21.3333" d="M739.556 477.867s-17.169-12.083-34.839-11.344c-17.692 0.717-192.717 0-192.717 0"></path>
<path fill="#fff" d="M783.576 528.384s-64.284 17.499-91.819 26.249c-27.568 8.761-19.308-5.257-19.308-5.257s15.622-37.604 25.737-50.745c10.092-13.107 44.988-17.488 67.948-20.116 12.288-1.377 22.653-7.066 29.605-12.026 5.916 11.196 9.728 27.261 12.083 45.42-6.418 7.341-14.579 12.999-23.845 16.348l-0.401 0.127zM240.435 528.384s64.296 17.499 91.83 26.249c27.546 8.761 19.285-5.257 19.285-5.257s-15.622-37.604-25.702-50.745c-10.081-13.107-44.988-17.488-67.959-20.116-12.288-1.377-22.642-7.066-29.628-12.026-5.916 11.196-9.728 27.261-12.083 45.42 6.419 7.344 14.585 13.004 23.856 16.349l0.401 0.126z"></path>
</svg>
